<svg width="228" height="32" viewBox="0 0 228 32" fill="none" xmlns="http://www.w3.org/2000/svg">
<path d="M31.5778 6.90526C31.5778 5.47368 31.7467 1.76842 32 0.421053C32 0.336842 32 0.252632 31.9156 0.252632C31.8311 0.168421 31.8311 0.168421 31.7467 0.168421C30.1425 0.421053 27.4406 0.505263 26.0897 0.505263H5.23483C4.05277 0.505263 2.87071 0.421053 1.77309 0.336842C1.09763 0.168421 0.591029 0.0842105 0.253298 0C0.253298 0 0.168865 0 0.0844327 0.0842105C0 0.0842105 0 0.168421 0 0.252632C0.0844327 0.505263 0.0844327 0.926316 0.168865 1.51579C0.253298 2.61053 0.337731 3.70526 0.337731 4.88421V26.9474C0.337731 28.0421 0.168865 30.6526 0 31.7474C0 31.8316 0 31.9158 0.0844327 32C0.168865 32 0.253298 32 0.337731 32C1.51979 31.6632 3.20844 31.4947 4.30607 31.4947H26.7652C28.0317 31.4947 30.4802 31.6632 31.6623 32C31.6623 32 31.6623 32 31.7467 32C31.8311 32 31.8311 32 31.9156 31.9158C32 31.8316 32 31.7474 32 31.6632C31.7467 30.6526 31.5778 28.8 31.5778 27.6211V6.90526ZM9.87863 30.1474H2.61741C2.19525 30.1474 1.85752 29.8105 1.85752 29.3895V22.2316C2.61741 23.9158 3.71504 25.5158 4.98153 26.8632C6.50132 28.4632 8.44327 29.4737 9.87863 30.1474ZM15.2823 8.50526C15.2823 9.26316 15.029 10.1053 14.5224 10.7789C14.1003 11.3684 13.5937 12.0421 13.1715 12.8842C12.9182 12.2105 12.7493 11.5368 12.5805 10.8632C12.5805 10.7789 11.2296 5.64211 10.8074 3.53684V3.45263C10.723 2.94737 10.5541 2.44211 10.5541 1.85263L15.1979 1.76842C15.2823 1.85263 15.4512 2.27368 15.4512 3.2C15.3668 4.46316 15.2823 8.50526 15.2823 8.50526ZM4.30607 6.31579C4.55937 6.14737 4.6438 6.06316 4.72823 6.06316C4.8971 5.89474 4.98153 5.89474 5.06596 5.81053C5.06596 5.81053 5.1504 5.81053 5.23483 5.72632L5.40369 5.47368H5.31926C5.31926 5.47368 4.05277 4.12632 3.54617 3.28421C3.20844 2.77895 3.03958 2.27368 2.95515 1.93684L8.94987 1.85263C9.2876 2.52632 9.45646 3.2 9.5409 3.78947L11.2296 10.9474C11.314 11.3684 11.3984 11.7053 11.4829 12.1263L11.8206 13.4737C9.87863 12.2947 8.61214 11.7895 8.61214 11.7895C8.44327 11.7053 7.76781 11.5368 7.76781 11.5368L7.51451 11.7053L7.34565 12.2105C7.34565 12.2105 6.83905 14.0632 6.75462 16.6737C4.6438 15.9158 2.61741 15.6632 1.77309 15.5789L1.85752 2.94737C2.11082 3.11579 2.53298 3.45263 2.87071 3.95789C3.37731 4.71579 3.71504 5.55789 3.8839 5.97895C3.96834 6.06316 3.96834 6.23158 3.96834 6.23158L4.30607 6.31579ZM2.02639 16.8421C2.02639 16.8421 2.11082 16.7579 2.19525 16.7579C3.54617 16.8421 7.09235 17.0105 10.3852 20.2105C10.8918 20.7158 10.9763 21.7263 11.0607 22.1474C11.314 25.6842 13.0871 28.6316 14.1003 30.0632V30.1474L14.0158 30.2316C13.0026 30.0632 9.2876 29.3053 5.99472 25.8526C2.70185 22.4 2.02639 19.0316 1.94195 17.2632C1.94195 17.0947 1.94195 16.9263 2.02639 16.8421ZM8.18997 17.0947C8.02111 15.7474 8.02111 13.4737 8.10554 12.8842C8.10554 12.7158 8.10554 12.6316 8.18997 12.6316C8.18997 12.6316 8.27441 12.6316 8.52771 12.7158C9.37203 13.1368 10.8074 13.9789 12.1583 14.9895C11.7361 16.1684 11.314 17.6 11.1451 18.8632C10.2164 18.1895 9.2876 17.6 8.18997 17.0947ZM12.1583 20.5474C12.1583 16.6737 14.5224 12.9684 15.8734 11.2L15.9578 11.1158C16.0422 11.1158 16.0422 11.1158 16.1266 11.2C17.562 13.0526 19.9261 16.7579 19.9261 20.5474C19.9261 24.6737 17.2243 28.2105 16.2111 29.5579C16.1266 29.6421 16.1266 29.6421 16.0422 29.6421C15.9578 29.6421 15.8734 29.6421 15.8734 29.5579C14.8602 28.3789 12.1583 24.7579 12.1583 20.5474ZM21.277 2.52632C21.1926 3.03158 21.0237 3.70526 21.0237 3.70526V3.78947L21.1082 3.95789C21.4459 4.04211 21.5303 4.04211 21.6148 4.04211H21.6992C21.8681 4.04211 21.9525 4.04211 22.1214 4.12632L22.3747 4.04211L22.4591 3.11579C22.4591 2.69474 22.5435 2.27368 22.628 1.85263H29.2137C29.0449 2.44211 28.6227 3.11579 28.3694 3.62105C27.0185 5.97895 24.5699 9.68421 23.7256 10.9474C23.4723 11.3684 22.8813 11.8737 22.4591 12.0421C21.8681 12.2947 20.8549 12.8 19.9261 13.3895C20.0106 13.0526 20.095 12.4632 20.2639 11.9579C20.4327 11.5368 20.686 10.6947 20.686 10.6947V10.6105L20.5171 10.4421C20.0106 10.3579 19.5884 10.2737 19.5884 10.2737L19.3351 10.3579V10.4421C19.3351 10.4421 19.3351 11.2842 19.2507 11.4526C19.2507 11.7895 19.0818 12.4632 18.9129 13.1368C18.4063 12.2105 17.7309 11.3684 17.3931 10.8632V10.7789C16.8865 10.1053 16.6332 9.26316 16.6332 8.50526L16.4644 3.36842C16.4644 2.77895 16.5488 2.18947 16.7177 1.85263H21.277C21.3615 2.02105 21.277 2.35789 21.277 2.52632ZM24.9077 11.5368C26.343 8.92632 27.6095 6.82105 29.0449 4.8C29.467 4.21053 29.8892 3.70526 30.1425 3.45263V15.4105C29.2982 15.4947 27.1873 15.7474 24.9921 16.5895C24.9921 15.2421 24.8232 13.9789 24.6544 13.2211C24.5699 12.7158 24.6544 12.0421 24.9077 11.5368ZM23.219 12.7158C23.3034 12.6316 23.4723 12.6316 23.4723 12.6316C23.4723 12.6316 23.5567 12.7158 23.5567 12.9684C23.6412 13.9789 23.6412 15.6632 23.4723 17.0947C22.4591 17.6 21.5303 18.1053 20.7704 18.7789C20.6016 17.5158 20.2639 16.1684 19.7573 14.9895C21.0237 13.9789 22.4591 13.1368 23.219 12.7158ZM30.058 17.0105C30.058 18.7789 29.5515 22.1474 26.0897 25.7684C22.628 29.3053 18.7441 30.0632 17.9842 30.1474C17.8997 30.1474 17.8997 30.1474 17.8997 30.0632C17.8997 30.0632 17.8997 29.9789 17.8997 29.8947C19.8417 27.0316 20.8549 24.3368 21.0237 21.6421C21.0237 21.2211 21.1926 20.5474 21.6148 20.1263C24.0633 17.2632 28.285 16.7579 29.5515 16.5895H29.6359C29.7203 16.5895 29.8892 16.5895 29.9736 16.6737C29.9736 16.7579 30.058 16.9263 30.058 17.0105ZM30.1425 22.2316V29.3895C30.1425 29.8105 29.8048 30.1474 29.3826 30.1474H21.9525C23.9789 29.3053 25.752 28.1263 27.1029 26.7789C28.3694 25.4316 29.3826 23.9158 30.1425 22.2316Z" fill="#66A9CB"/>
<path d="M21.0225 9.09198C20.0094 9.09198 19.165 8.24988 19.165 7.23935C19.165 6.22882 20.0094 5.38672 21.0225 5.38672C22.0357 5.38672 22.88 6.22882 22.88 7.23935C22.7956 8.24988 22.0357 9.09198 21.0225 9.09198ZM21.0225 6.22882C20.4315 6.22882 20.0094 6.64988 20.0094 7.23935C20.0094 7.82882 20.4315 8.24988 21.0225 8.24988C21.6136 8.24988 22.0357 7.82882 22.0357 7.23935C22.0357 6.64988 21.5291 6.22882 21.0225 6.22882Z" fill="#66A9CB"/>
<path d="M8.35852 8.8433C7.59863 9.01172 6.83873 9.76962 6.66987 10.5275C6.66987 10.6117 6.58544 10.6117 6.58544 10.5275C6.41657 9.76962 5.57224 8.92751 4.81235 8.8433C4.72792 8.8433 4.72792 8.8433 4.81235 8.8433C5.57224 8.67488 6.41657 7.91698 6.58544 7.07488C6.58544 6.99067 6.66987 6.99067 6.66987 7.07488C6.83873 7.83277 7.59863 8.59067 8.35852 8.75909C8.44295 8.75909 8.44295 8.75909 8.35852 8.8433Z" fill="#66A9CB"/>
<path d="M45.2791 8.50781C45.8694 8.50781 46.5581 8.50781 47.4436 8.50781C48.3291 8.50781 49.0178 8.50781 49.6082 8.50781C50.7888 8.50781 51.9695 8.68963 53.0518 9.14417C54.1341 9.59871 55.118 10.1442 55.9051 10.8714C56.6922 11.5987 57.2825 12.4169 57.7744 13.4168C58.2664 14.4168 58.4632 15.4168 58.4632 16.5077C58.4632 17.3259 58.3648 18.0531 58.168 18.7804C57.9712 19.5077 57.7745 20.0531 57.3809 20.5986C56.9873 21.144 56.6922 21.5076 56.2002 21.9622C55.7083 22.3258 55.3147 22.6894 54.8228 22.9622C54.3308 23.2349 53.8389 23.4167 53.2486 23.5985C52.6582 23.7803 52.1663 23.8712 51.5759 23.9622C51.084 24.0531 50.4937 24.0531 50.0017 24.0531C49.0178 24.0531 48.1323 24.0531 47.3452 24.0531C46.5581 24.0531 45.8694 24.0531 45.2791 24.0531C44.9839 24.0531 44.7871 24.0531 44.5903 24.0531C44.3936 24.0531 44.1968 24.0531 44.0984 24.0531H44V23.9622C44.1968 22.8713 44.2952 21.3258 44.2952 19.2349V13.4168C44.2952 11.326 44.1968 9.78052 44 8.68963L44.0984 8.59872C44.1968 8.50781 44.6887 8.50781 45.2791 8.50781ZM46.3613 21.9622C46.3613 22.2349 46.4597 22.4167 46.5581 22.5985C46.6565 22.6894 46.9517 22.7804 47.3452 22.8713C47.7388 22.9622 48.3291 22.9622 49.2146 22.9622C49.8049 22.9622 50.2969 22.9622 50.6904 22.8713C51.1824 22.8713 51.5759 22.7804 52.0679 22.5985C52.5598 22.5076 52.9534 22.3258 53.3469 22.144C53.7405 21.9622 54.0357 21.6895 54.3308 21.4167C54.626 21.144 54.9212 20.7804 55.1179 20.4167C55.3147 20.0531 55.5115 19.5077 55.6099 18.9622C55.7083 18.4168 55.8067 17.7804 55.8067 17.1441C55.8067 16.3259 55.7083 15.5986 55.6099 14.9623C55.5115 14.235 55.2163 13.5987 54.8228 12.8714C54.4292 12.235 54.0357 11.5987 53.4453 11.1441C52.9534 10.6896 52.1663 10.2351 51.3792 9.96234C50.4937 9.68962 49.6082 9.5078 48.5259 9.5078C48.1323 9.5078 47.8372 9.5078 47.6404 9.5078C47.4436 9.5078 47.1484 9.59871 46.9517 9.59871C46.7549 9.68961 46.5581 9.78052 46.4597 9.87143C46.3613 9.96234 46.2629 10.1442 46.2629 10.4169V21.9622H46.3613Z" fill="#8A9199"/>
<path d="M63.0881 13.3259C63.0881 11.235 62.9897 9.68962 62.793 8.59872L62.8914 8.50781C63.1865 8.59872 63.6785 8.59872 64.1704 8.59872C64.6623 8.59872 65.1543 8.59872 65.4495 8.50781L65.5478 8.59872C65.3511 9.68962 65.2527 11.326 65.2527 13.3259V19.144C65.2527 21.144 65.3511 22.6894 65.5478 23.8712L65.4495 23.9622C65.1543 23.8712 64.6623 23.8712 64.1704 23.8712C63.6785 23.8712 63.1865 23.8712 62.8914 23.9622L62.793 23.8712C62.9897 22.7804 63.0881 21.2349 63.0881 19.144V13.3259Z" fill="#8A9199"/>
<path d="M73.221 18.5059C72.1387 20.8695 71.45 22.6877 71.0564 24.0513C70.8596 23.9604 70.4661 23.9604 69.8757 23.9604C69.4822 23.9604 69.187 23.9604 68.9902 24.0513L76.5662 8.32422H77.2549L79.7146 13.9605L82.5679 20.3241C83.355 22.1422 83.9453 23.324 84.3389 24.0513C84.0437 23.9604 83.5518 23.9604 82.7647 23.9604C82.1743 23.9604 81.7808 23.9604 81.4856 24.0513C81.0921 22.7786 80.4033 20.8695 79.5178 18.5059C78.534 18.5059 77.5501 18.5059 76.4678 18.5059C75.3855 18.5059 74.2048 18.5059 73.221 18.5059ZM79.1243 17.415C78.3372 15.415 77.4517 13.506 76.4678 11.506H76.3694L73.8113 17.415C74.0081 17.415 74.4016 17.415 75.0903 17.415C75.7791 17.415 76.271 17.415 76.5662 17.415C77.4517 17.415 78.3372 17.415 79.1243 17.415Z" fill="#8A9199"/>
<path d="M90.5361 8.14453H91.2249C91.7168 9.14452 92.7007 11.0536 93.9798 13.7808C95.2588 16.5081 96.3411 18.6898 97.2266 20.2353L103.819 8.14453H104.409C105.196 14.1445 105.885 19.4171 106.574 23.9625C106.278 23.8716 105.885 23.8716 105.196 23.8716C104.606 23.8716 104.212 23.8716 103.917 23.9625C103.425 18.9626 103.13 15.2353 102.736 12.599H102.638C100.375 16.4171 98.4073 20.1444 96.6363 23.8716H96.1443C95.6524 22.8716 94.7669 21.0534 93.5862 18.508C92.4055 15.9626 91.4216 13.9626 90.6345 12.5081H90.5361C90.3394 13.7808 89.9458 15.7808 89.5523 18.5989C89.0603 21.4171 88.7651 23.1443 88.6668 23.9625C88.47 23.8716 88.1748 23.8716 87.8796 23.8716C87.4861 23.8716 87.1909 23.8716 86.9941 23.9625C88.5684 17.9626 89.6506 12.6899 90.5361 8.14453Z" fill="#8A9199"/>
<path d="M126.746 16.1423C126.746 17.6877 126.45 19.1423 125.762 20.3241C125.073 21.5059 124.089 22.5058 122.81 23.1422C121.531 23.7786 120.154 24.1422 118.481 24.1422C117.005 24.1422 115.628 23.8695 114.447 23.2331C113.168 22.5968 112.184 21.7786 111.495 20.5968C110.708 19.415 110.413 18.0514 110.413 16.5968C110.413 15.0514 110.807 13.6878 111.495 12.4151C112.184 11.1424 113.168 10.1424 114.447 9.41511C115.726 8.68785 117.104 8.32422 118.579 8.32422C120.154 8.32422 121.531 8.68785 122.81 9.32421C124.089 9.96056 125.073 10.8696 125.762 12.0514C126.45 13.2332 126.746 14.5969 126.746 16.1423ZM118.186 9.32421C117.694 9.32421 117.202 9.41511 116.71 9.50602C116.218 9.68784 115.726 9.86965 115.333 10.2333C114.841 10.5969 114.447 11.0515 114.152 11.506C113.857 12.0514 113.562 12.6878 113.365 13.4151C113.168 14.2332 113.07 15.0514 113.07 16.0514C113.07 17.1423 113.266 18.1423 113.562 19.0513C113.857 19.9604 114.349 20.6877 114.939 21.2331C115.529 21.7786 116.12 22.2331 116.907 22.5058C117.595 22.7786 118.383 22.9604 119.17 22.9604C120.646 22.9604 121.925 22.4149 122.81 21.2331C123.794 20.0513 124.188 18.5059 124.188 16.415C124.188 13.9605 123.696 12.2333 122.613 10.9605C121.531 9.96056 120.055 9.32421 118.186 9.32421Z" fill="#8A9199"/>
<path d="M131.566 8.59588C131.763 8.59588 132.156 8.59588 132.747 8.59588L133.14 8.50497L141.995 19.0503C142.586 19.7775 142.979 20.1412 143.078 20.2321C143.274 20.4139 143.471 20.323 143.471 20.0503C143.471 19.9594 143.471 19.7775 143.471 19.5957V13.2322C143.471 11.1413 143.373 9.59586 143.176 8.50497L143.274 8.41406C143.57 8.50497 143.865 8.50497 144.16 8.50497C144.455 8.50497 144.75 8.50497 145.045 8.41406L145.144 8.50497C145.045 9.77768 144.947 11.0504 144.947 12.414C144.849 13.7776 144.849 14.8685 144.849 15.7776C144.849 16.6867 144.75 17.9594 144.75 19.5957C144.75 21.2321 144.652 22.5048 144.652 23.323C144.652 23.7775 144.455 24.0502 144.16 24.0502C143.766 24.0502 143.373 23.8684 143.078 23.5048L134.124 12.9595L133.731 12.5049C133.632 12.414 133.534 12.3231 133.436 12.2322C133.337 12.1413 133.337 12.1413 133.239 12.1413C133.239 12.1413 133.14 12.2322 133.14 12.3231C133.14 12.414 133.14 12.5958 133.14 12.6867C133.14 12.8685 133.14 13.0504 133.14 13.3231V19.0503C133.14 21.1412 133.239 22.6866 133.436 23.7775L133.337 23.8684C133.042 23.7775 132.747 23.7775 132.452 23.7775C132.156 23.7775 131.861 23.7775 131.566 23.8684L131.468 23.7775C131.665 21.9593 131.763 19.5048 131.861 16.414C131.665 13.414 131.665 10.7777 131.566 8.59588Z" fill="#8A9199"/>
<path d="M151.833 8.50781C152.423 8.50781 153.112 8.50781 153.997 8.50781C154.883 8.50781 155.572 8.50781 156.162 8.50781C157.343 8.50781 158.523 8.68963 159.605 9.14417C160.688 9.59871 161.672 10.1442 162.459 10.8714C163.246 11.5987 163.836 12.4169 164.328 13.4168C164.82 14.4168 165.017 15.4168 165.017 16.5077C165.017 17.3259 164.918 18.0531 164.722 18.7804C164.525 19.5077 164.328 20.0531 163.935 20.5986C163.541 21.144 163.246 21.5076 162.754 21.9622C162.262 22.3258 161.868 22.6894 161.376 22.9622C160.885 23.2349 160.393 23.4167 159.802 23.5985C159.212 23.7803 158.72 23.8712 158.13 23.9622C157.638 24.0531 157.047 24.0531 156.555 24.0531C155.572 24.0531 154.686 24.0531 153.899 24.0531C153.112 24.0531 152.423 24.0531 151.833 24.0531C151.538 24.0531 151.341 24.0531 151.144 24.0531C150.947 24.0531 150.75 24.0531 150.652 24.0531H150.554V23.9622C150.75 22.8713 150.849 21.3258 150.849 19.2349V13.4168C150.849 11.326 150.75 9.78052 150.554 8.68963L150.652 8.59872C150.849 8.50781 151.242 8.50781 151.833 8.50781ZM153.013 21.9622C153.013 22.2349 153.112 22.4167 153.21 22.5985C153.309 22.6894 153.604 22.7804 153.997 22.8713C154.391 22.9622 154.981 22.9622 155.867 22.9622C156.457 22.9622 156.949 22.9622 157.343 22.8713C157.834 22.8713 158.228 22.7804 158.72 22.5985C159.212 22.5076 159.605 22.3258 159.999 22.144C160.393 21.9622 160.688 21.6895 160.983 21.4167C161.278 21.144 161.573 20.7804 161.77 20.4167C161.967 20.0531 162.164 19.5077 162.262 18.9622C162.36 18.4168 162.459 17.7804 162.459 17.1441C162.459 16.3259 162.36 15.5986 162.262 14.9623C162.164 14.235 161.868 13.5987 161.475 12.8714C161.081 12.235 160.688 11.5987 160.097 11.1441C159.605 10.6896 158.818 10.2351 158.031 9.96234C157.146 9.68962 156.26 9.5078 155.178 9.5078C154.784 9.5078 154.489 9.5078 154.292 9.5078C154.096 9.5078 153.801 9.59871 153.604 9.59871C153.407 9.68961 153.21 9.78052 153.112 9.87143C153.013 9.96234 152.915 10.1442 152.915 10.4169V21.9622H153.013Z" fill="#8A9199"/>
<path d="M172.004 13.3259V19.144C172.004 20.8713 172.102 21.9622 172.2 22.4167C173.184 22.4167 174.365 22.4167 175.546 22.3258C176.726 22.2349 177.71 22.144 178.399 22.0531L179.481 21.9622L179.58 22.0531C179.58 22.3258 179.481 22.5985 179.481 22.8713C179.481 23.144 179.481 23.5076 179.58 23.9622L179.481 24.0531C179.088 24.0531 178.596 23.9622 177.907 23.9622H170.823C170.528 23.9622 170.331 23.9622 170.134 23.9622C169.937 23.9622 169.741 23.9622 169.642 23.9622H169.544V23.8712C169.741 22.7804 169.839 21.2349 169.839 19.144V13.3259C169.839 11.235 169.741 9.68962 169.544 8.59872L169.642 8.50781C169.937 8.59872 170.429 8.59872 170.921 8.59872C171.512 8.59872 171.905 8.59872 172.299 8.50781V8.59872C172.004 9.68962 172.004 11.235 172.004 13.3259Z" fill="#8A9199"/>
<path d="M185.58 18.5059C184.498 20.8695 183.809 22.6877 183.416 24.0513C183.219 23.9604 182.825 23.9604 182.235 23.9604C181.842 23.9604 181.546 23.9604 181.35 24.0513L188.926 8.32422H189.614L192.074 13.9605L194.927 20.3241C195.714 22.1422 196.305 23.324 196.698 24.0513C196.403 23.9604 195.911 23.9604 195.124 23.9604C194.534 23.9604 194.14 23.9604 193.845 24.0513C193.451 22.7786 192.763 20.8695 191.877 18.5059C190.893 18.5059 189.909 18.5059 188.827 18.5059C187.646 18.5059 186.564 18.5059 185.58 18.5059ZM191.484 17.415C190.697 15.415 189.811 13.506 188.827 11.506H188.729L185.974 17.415C186.171 17.415 186.564 17.415 187.253 17.415C187.942 17.415 188.434 17.415 188.729 17.415C189.713 17.415 190.598 17.415 191.484 17.415Z" fill="#8A9199"/>
<path d="M200.536 13.3259C200.536 11.235 200.438 9.68962 200.241 8.59872L200.34 8.50781C200.635 8.59872 201.127 8.59872 201.619 8.59872C202.209 8.59872 202.603 8.59872 202.898 8.50781L202.996 8.59872C202.799 9.68962 202.701 11.326 202.701 13.3259V15.6895C202.898 15.6895 203.094 15.5986 203.291 15.5077C205.357 13.8714 207.817 11.5078 210.67 8.50781C210.867 8.59872 211.359 8.59872 211.949 8.59872C212.54 8.59872 213.032 8.59872 213.229 8.50781L208.899 12.1441C207.325 13.5077 206.243 14.5986 205.357 15.5077V15.5986L213.425 24.0531C213.13 23.9622 212.54 23.9622 211.851 23.9622C211.064 23.9622 210.572 23.9622 210.277 24.0531C206.538 19.7804 204.177 17.235 203.193 16.3259C203.094 16.235 202.898 16.1441 202.701 16.1441V19.2349C202.701 21.2349 202.799 22.7804 202.996 23.9622L202.898 24.0531C202.603 23.9622 202.111 23.9622 201.619 23.9622C201.028 23.9622 200.635 23.9622 200.34 24.0531L200.241 23.9622C200.438 22.8713 200.536 21.3258 200.536 19.2349V13.3259Z" fill="#8A9199"/>
<path d="M219.625 19.1423C219.625 20.9604 219.723 22.0513 219.822 22.5058C220.805 22.5058 221.986 22.5058 223.167 22.5058C224.347 22.5058 225.331 22.5058 226.02 22.4149L227.102 22.324L227.201 22.4149C227.201 22.6877 227.102 22.9604 227.102 23.2331C227.102 23.2331 227.102 23.5058 227.201 23.9604L227.102 24.0513C226.709 24.0513 226.217 23.9604 225.528 23.9604H218.444C218.149 23.9604 217.952 23.9604 217.755 23.9604C217.559 23.9604 217.362 23.9604 217.263 23.9604H217.165V23.8695C217.362 22.7786 217.46 21.2331 217.46 19.0513V13.2332C217.46 11.1424 217.362 9.59693 217.165 8.41513L217.263 8.32422C217.559 8.41513 217.952 8.41513 218.542 8.41513H225.331C225.922 8.41513 226.512 8.41513 226.906 8.32422L227.004 8.41513C227.004 8.86967 226.906 9.14239 226.906 9.32421C226.906 9.50602 226.906 9.68784 227.004 9.96056L226.807 10.1424C224.446 9.96056 222.084 9.86965 219.822 9.86965C219.723 10.3242 219.625 11.506 219.625 13.3242V15.1423C221.396 15.1423 223.364 15.0514 225.43 14.8696L225.528 14.9605C225.43 15.1423 225.43 15.415 225.43 15.6878C225.43 15.9605 225.43 16.2332 225.528 16.415L225.43 16.5059C223.757 16.3241 221.789 16.2332 219.625 16.2332V19.1423Z" fill="#8A9199"/>
</svg>
