<svg width="24" height="24" viewBox="0 0 24 24" fill="none" xmlns="http://www.w3.org/2000/svg">
<path fill-rule="evenodd" clip-rule="evenodd" d="M5.60039 8.99844C5.60039 6.88337 6.32874 5.29897 7.46047 4.2406C8.59858 3.17626 10.1938 2.59844 12.0004 2.59844C13.8056 2.59844 15.401 3.18111 16.5398 4.24867C17.6725 5.3105 18.4004 6.89549 18.4004 8.99844C18.4004 12.0663 16.7432 15.1875 15.0132 17.5943C14.156 18.7868 13.2978 19.781 12.6538 20.4769C12.3967 20.7547 12.1743 20.9844 12.0004 21.1597C11.8265 20.9844 11.6041 20.7547 11.347 20.4769C10.703 19.781 9.84476 18.7868 8.98759 17.5943C7.25761 15.1875 5.60039 12.0663 5.60039 8.99844ZM11.5926 22.4386C11.5928 22.4387 11.5929 22.4388 12.0004 21.9984L11.5929 22.4388C11.8229 22.6516 12.1779 22.6516 12.4079 22.4388L12.0004 21.9984C12.4079 22.4388 12.408 22.4387 12.4082 22.4386L12.4086 22.4381L12.41 22.4368L12.4147 22.4325L12.4315 22.4168C12.4459 22.4032 12.4668 22.3834 12.4937 22.3577C12.5475 22.3063 12.6253 22.231 12.7237 22.1334C12.9205 21.9382 13.2 21.6535 13.5345 21.292C14.203 20.5696 15.0948 19.5368 15.9876 18.2947C17.7576 15.8322 19.6004 12.4534 19.6004 8.99844C19.6004 6.60139 18.7613 4.68638 17.3605 3.3732C15.9658 2.06577 14.0612 1.39844 12.0004 1.39844C9.94098 1.39844 8.03621 2.05919 6.64082 3.36414C5.23904 4.67506 4.40039 6.59066 4.40039 8.99844C4.40039 12.4534 6.24317 15.8322 8.01319 18.2947C8.90603 19.5368 9.79776 20.5696 10.4663 21.292C10.8008 21.6535 11.0803 21.9382 11.2771 22.1334C11.3755 22.231 11.4533 22.3063 11.5071 22.3577C11.534 22.3834 11.5548 22.4032 11.5693 22.4168L11.5861 22.4325L11.5907 22.4368L11.5921 22.4381L11.5926 22.4386ZM9.60039 8.99844C9.60039 7.67295 10.6749 6.59844 12.0004 6.59844C13.3259 6.59844 14.4004 7.67295 14.4004 8.99844C14.4004 10.3239 13.3259 11.3984 12.0004 11.3984C10.6749 11.3984 9.60039 10.3239 9.60039 8.99844ZM12.0004 5.39844C10.0122 5.39844 8.40039 7.01021 8.40039 8.99844C8.40039 10.9867 10.0122 12.5984 12.0004 12.5984C13.9886 12.5984 15.6004 10.9867 15.6004 8.99844C15.6004 7.01021 13.9886 5.39844 12.0004 5.39844Z" fill="black"/>
</svg>
